# xmcd
#
# Track frame offsets:
#	150
#	16773
#	32358
#	38683
#	57916
#	73357
#	88669
#	106049
#	112297
#	131823
#	148707
#	165306
#	185092
#	202642
#	226164
#	235554
#	246946
#
# Disc length: 3470 seconds
#
# Revision: 0
# Processed by: cddbd v1.5.2PL0 Copyright (c) Steve Scherf et al.
# Submitted via: EasyCDDAExtractor 12.0.4.1
#
DISCID=dc0d8c11
DTITLE=Адриан и Александр - Para Bellum
DYEAR=2009
DGENRE=Авторская песня
TTITLE0=Соул для Юлии
TTITLE1=Кавалерийский марш
TTITLE2=Памяти Алексея Дидурова (стихи)
TTITLE3=Прощание с романсом 19 века (Александру Дулову)
TTITLE4=Para bellum
TTITLE5=Паинька
TTITLE6=Раста
TTITLE7=Павелецкий вокзал (стихи)
TTITLE8=Город кофе со льдом
TTITLE9=Кронштадт
TTITLE10=Сдаюсь, столица не по мне (стихи)
TTITLE11=Кому бы я ни был дорог 
TTITLE12=Театр теней
TTITLE13=Городская баллада
TTITLE14=Безнадёга (Веня Д`ркин)
TTITLE15=Любовь на перше (Веня Д`ркин)
TTITLE16=Кошка (Веня Д`ркин)
EXTD=
EXTT0=
EXTT1=
EXTT2=
EXTT3=
EXTT4=
EXTT5=
EXTT6=
EXTT7=
EXTT8=
EXTT9=
EXTT10=
EXTT11=
EXTT12=
EXTT13=
EXTT14=
EXTT15=
EXTT16=
PLAYORDER=
